<svg width="2500" height="2500" viewBox="0 0 900 900" xmlns="http://www.w3.org/2000/svg" xmlns:xlink="http://www.w3.org/1999/xlink" overflow="hidden"><path d="M0 0 900 0 900 900 0 900Z" fill="#92160A"/><path d="M0 0 900 0 900 900 0 900ZM300 114 199 115 198 199 123 199 116 200 116 781 120 782 698 782 699 736 699 699 780 700 781 699 782 116 781 115 582 114Z" fill="#FEFFFE"/><path d="M123 199 199 199 200 386 200 697 201 698 699 699 699 736 698 782 117 782 116 781 116 200Z" fill="#009697"/><path d="M270 365 318 365 321 368 340 410 352 437 371 478 385 509 385 511 387 511 386 452 386 387 387 367 388 366 409 365 433 365 435 366 435 601 434 602 400 602 383 600 378 590 366 563 353 534 329 482 319 460 317 458 317 485 318 551 317 601 316 602 269 602 268 601 268 367ZM457 365 516 365 518 367 523 382 534 409 543 431 544 433 546 433 554 417 564 393 574 368 575 366 595 365 632 365 633 368 624 389 607 425 589 464 581 483 582 488 590 505 599 522 612 550 630 588 636 601 636 602 577 602 569 586 556 553 547 532 547 530 544 533 533 560 519 596 515 602 458 602 457 598 463 586 473 563 481 547 495 518 504 498 510 484 509 476 492 442 480 416 464 383 457 368Z" fill="#FEFFFE"/></svg>